<svg xmlns="http://www.w3.org/2000/svg" viewBox="0 0 643.64 128.3"><defs><style>.cls-1{fill:#fff;}</style></defs><g id="Layer_2" data-name="Layer 2"><g id="Layer_1-2" data-name="Layer 1"><path class="cls-1" d="M115,0H10A10,10,0,0,0,0,10V115a10,10,0,0,0,10,10H115a10,10,0,0,0,10-10V10A10,10,0,0,0,115,0ZM23.76,55.43A18.14,18.14,0,0,1,14,39.25V22.73a5,5,0,0,1,5-5H32.1c12.1,0,21.4,8.07,22.14,18.73C55.29,51.59,39.56,63.5,23.76,55.43Zm86.9-29.71L84.45,94.21a20.38,20.38,0,0,1-19,13.1H49.69a5.9,5.9,0,0,1-5.52-8L70.38,30.81a20.38,20.38,0,0,1,19-13.11h15.73A5.9,5.9,0,0,1,110.66,25.72Z"/><path class="cls-1" d="M188.1,104.81,155.88,23.05H173l24.89,66.17h-6.63l25.12-66.17h16.86l-32.56,81.76Z"/><path class="cls-1" d="M248.8,39.56a8.24,8.24,0,0,1-6.16-2.5,8.53,8.53,0,0,1-2.44-6.22,8.58,8.58,0,0,1,2.44-6.16,8.78,8.78,0,0,1,12.39,0,8.74,8.74,0,0,1,2.38,6.16A8.69,8.69,0,0,1,255,37.06,8.21,8.21,0,0,1,248.8,39.56Zm-7.67,65.25V48.63h15.35v56.18Z"/><path class="cls-1" d="M288.11,106.09a35.5,35.5,0,0,1-17.79-4.83,26.15,26.15,0,0,1-6.63-5.52l9.07-9.19a18.78,18.78,0,0,0,6.75,4.88A21.39,21.39,0,0,0,288,93.06a12,12,0,0,0,5.64-1,3.36,3.36,0,0,0,1.92-3.14,4,4,0,0,0-2-3.6,19.54,19.54,0,0,0-5.29-2.15q-3.25-.87-6.81-2a36.07,36.07,0,0,1-6.8-2.91,14.4,14.4,0,0,1-5.29-5,15.22,15.22,0,0,1-2-8.31,16.53,16.53,0,0,1,2.62-9.31,17.26,17.26,0,0,1,7.5-6.16,27.82,27.82,0,0,1,11.52-2.21,31.38,31.38,0,0,1,12.61,2.44A23.22,23.22,0,0,1,310.91,57l-9.19,9.19A15.41,15.41,0,0,0,296,61.66a17.12,17.12,0,0,0-6.92-1.4,10.37,10.37,0,0,0-5.17,1.05,3.22,3.22,0,0,0-1.81,2.91,3.59,3.59,0,0,0,2,3.25,22.15,22.15,0,0,0,5.29,2q3.25.87,6.8,2a29.37,29.37,0,0,1,6.75,3.08,16,16,0,0,1,5.23,5.23,15.57,15.57,0,0,1,2,8.38,16,16,0,0,1-5.93,13.08Q298.34,106.09,288.11,106.09Z"/><path class="cls-1" d="M327,39.56a8.24,8.24,0,0,1-6.16-2.5,8.53,8.53,0,0,1-2.44-6.22,8.58,8.58,0,0,1,2.44-6.16,8.78,8.78,0,0,1,12.39,0,8.74,8.74,0,0,1,2.38,6.16,8.69,8.69,0,0,1-2.38,6.22A8.21,8.21,0,0,1,327,39.56Zm-7.67,65.25V48.63h15.35v56.18Z"/><path class="cls-1" d="M373.36,106a30.23,30.23,0,0,1-15.3-3.9,29.41,29.41,0,0,1-10.81-10.58,28.45,28.45,0,0,1-4-14.94,28.16,28.16,0,0,1,4-14.83A29.21,29.21,0,0,1,358,51.25a32.06,32.06,0,0,1,30.65,0,29.38,29.38,0,0,1,10.76,10.47,28.24,28.24,0,0,1,3.95,14.83,28.87,28.87,0,0,1-14.71,25.52A30.19,30.19,0,0,1,373.36,106Zm-.12-14.19a14.93,14.93,0,0,0,7.62-1.92A13.13,13.13,0,0,0,386,84.51a16.61,16.61,0,0,0,1.8-7.85,15.89,15.89,0,0,0-1.86-7.79,13.7,13.7,0,0,0-5.12-5.29,14.6,14.6,0,0,0-7.56-1.92,14.37,14.37,0,0,0-7.44,1.92,13.7,13.7,0,0,0-5.12,5.29,15.89,15.89,0,0,0-1.86,7.79,16.18,16.18,0,0,0,1.86,7.85,13.6,13.6,0,0,0,5.12,5.35A14.37,14.37,0,0,0,373.24,91.78Z"/><path class="cls-1" d="M412,104.81V48.63H427.2v56.18Zm37.79,0V72.59a10.76,10.76,0,0,0-11.28-11.28,11.92,11.92,0,0,0-5.81,1.4,10,10,0,0,0-4,3.95,11.79,11.79,0,0,0-1.46,5.93l-5.93-3A22.74,22.74,0,0,1,424.12,58,20.23,20.23,0,0,1,432,50.26a23.31,23.31,0,0,1,11.45-2.79,20.29,20.29,0,0,1,11,3.08,22.37,22.37,0,0,1,7.68,8A21.27,21.27,0,0,1,465,69.22v35.59Z"/><path class="cls-1" d="M499.66,106a25.63,25.63,0,0,1-13.84-3.84,26.78,26.78,0,0,1-9.66-10.46,31.54,31.54,0,0,1-3.48-14.89,31.78,31.78,0,0,1,3.48-15,26.81,26.81,0,0,1,9.66-10.47,25.63,25.63,0,0,1,13.84-3.84,23.47,23.47,0,0,1,10.81,2.44,19.6,19.6,0,0,1,7.62,6.81,19,19,0,0,1,3.08,9.82V86.78a19,19,0,0,1-3.08,9.89,20.22,20.22,0,0,1-7.62,6.8A22.89,22.89,0,0,1,499.66,106Zm2.79-14.07a13.5,13.5,0,0,0,10.35-4.25,15.5,15.5,0,0,0,4-11,16.67,16.67,0,0,0-1.8-7.85,13.38,13.38,0,0,0-5-5.35,14.28,14.28,0,0,0-7.5-1.92,14.08,14.08,0,0,0-7.39,1.92,13.38,13.38,0,0,0-5,5.35,16.67,16.67,0,0,0-1.8,7.85,16.91,16.91,0,0,0,1.8,8,13.31,13.31,0,0,0,5,5.35A14.08,14.08,0,0,0,502.45,91.9Zm13.49,12.91V89.69L518.38,76l-2.44-13.49V48.63h15.12v56.18Z"/><path class="cls-1" d="M543.39,104.81V48.63h15.23v56.18Zm15.23-31.06-5.93-4q1-10.35,6-16.34t14.42-6a19.22,19.22,0,0,1,7.33,1.34,16.09,16.09,0,0,1,5.93,4.36L576.88,64.1A8,8,0,0,0,573.8,62a11.28,11.28,0,0,0-4.13-.7,10.81,10.81,0,0,0-8,3.08Q558.63,67.48,558.62,73.75Z"/><path class="cls-1" d="M607.82,105.27l-23.5-56.64h16.52L616.42,91.9h-5.58L627,48.63h16.63l-25,56.64Zm-15.59,23,17.1-36.17,9.3,13.14-10.23,23Z"/></g></g></svg>