<svg width="443" height="125" viewBox="0 0 443 125" fill="none" xmlns="http://www.w3.org/2000/svg">
<path d="M402.936 115.005C394.502 115.005 387.232 113.647 381.125 110.933C375.114 108.122 369.589 103.905 364.548 98.2823L379.38 83.5958C382.676 87.3765 386.311 90.3332 390.285 92.4659C394.357 94.5016 399.059 95.5195 404.39 95.5195C409.237 95.5195 412.97 94.647 415.587 92.9021C418.301 91.1572 419.658 88.7336 419.658 85.6315C419.658 82.8203 418.786 80.5422 417.041 78.7972C415.296 77.0523 412.97 75.5497 410.061 74.2895C407.25 73.0293 404.1 71.8175 400.61 70.6542C397.217 69.4909 393.824 68.1822 390.431 66.7281C387.038 65.1771 383.887 63.2867 380.979 61.0571C378.168 58.7305 375.89 55.8708 374.145 52.4778C372.4 48.988 371.527 44.6257 371.527 39.3909C371.527 33.0897 373.03 27.661 376.035 23.1048C379.137 18.5486 383.403 15.1072 388.831 12.7807C394.26 10.3571 400.513 9.14539 407.589 9.14539C414.763 9.14539 421.306 10.4056 427.22 12.9261C433.23 15.4465 438.174 18.8879 442.052 23.2502L427.22 37.9368C424.118 34.7377 420.967 32.3627 417.768 30.8116C414.666 29.2606 411.128 28.485 407.153 28.485C403.179 28.485 400.028 29.2606 397.701 30.8116C395.375 32.2657 394.212 34.3984 394.212 37.2097C394.212 39.8271 395.084 41.9598 396.829 43.6078C398.574 45.1588 400.852 46.516 403.663 47.6793C406.571 48.8426 409.722 50.0059 413.115 51.1691C416.605 52.3324 420.046 53.6896 423.439 55.2407C426.832 56.7917 429.934 58.779 432.745 61.2025C435.654 63.5291 437.98 66.5342 439.725 70.218C441.47 73.8048 442.343 78.2641 442.343 83.5958C442.343 93.3868 438.853 101.094 431.873 106.716C424.893 112.242 415.248 115.005 402.936 115.005Z" fill="#7E4AB8"/>
<path d="M306.118 113.405L266.566 10.745H290.995L321.095 93.7747H311.062L341.598 10.745H365.736L325.748 113.405H306.118Z" fill="#7E4AB8"/>
<path d="M210.238 115.15C202.483 115.15 195.309 113.793 188.717 111.078C182.222 108.364 176.503 104.583 171.559 99.7364C166.615 94.8894 162.786 89.2668 160.072 82.8688C157.357 76.3737 156 69.394 156 61.9296C156 54.3682 157.357 47.3885 160.072 40.9904C162.786 34.5923 166.567 29.0182 171.414 24.2682C176.261 19.4211 181.932 15.6889 188.427 13.0715C195.019 10.3572 202.192 9 209.947 9C217.606 9 224.682 10.3572 231.177 13.0715C237.769 15.6889 243.489 19.4211 248.336 24.2682C253.28 29.0182 257.109 34.6408 259.823 41.1358C262.538 47.5339 263.895 54.5136 263.895 62.075C263.895 69.5394 262.538 76.5192 259.823 83.0142C257.109 89.4123 253.328 95.0348 248.481 99.8819C243.634 104.632 237.915 108.364 231.323 111.078C224.828 113.793 217.8 115.15 210.238 115.15ZM209.947 94.3562C216.055 94.3562 221.386 92.9991 225.943 90.2847C230.596 87.5704 234.183 83.7897 236.703 78.9427C239.224 73.9987 240.484 68.3277 240.484 61.9296C240.484 57.0826 239.757 52.7202 238.303 48.8426C236.848 44.868 234.764 41.4751 232.05 38.6638C229.336 35.7556 226.088 33.5745 222.307 32.1203C218.624 30.5693 214.504 29.7938 209.947 29.7938C203.84 29.7938 198.46 31.1509 193.807 33.8653C189.251 36.4827 185.712 40.2149 183.192 45.0619C180.671 49.812 179.411 55.4346 179.411 61.9296C179.411 66.7766 180.138 71.1874 181.592 75.162C183.046 79.1365 185.082 82.578 187.7 85.4862C190.414 88.2975 193.661 90.4786 197.442 92.0297C201.223 93.5807 205.391 94.3562 209.947 94.3562Z" fill="#7E4AB8"/>
<path d="M120.54 4.46997H4.46997V120.54H120.54V4.46997Z" fill="white"/>
<path d="M115 0H10C7.34784 0 4.8043 1.05357 2.92893 2.92893C1.05357 4.8043 0 7.34784 0 10L0 115C0 117.652 1.05357 120.196 2.92893 122.071C4.8043 123.946 7.34784 125 10 125H115C117.652 125 120.196 123.946 122.071 122.071C123.946 120.196 125 117.652 125 115V10C125 7.34784 123.946 4.8043 122.071 2.92893C120.196 1.05357 117.652 0 115 0ZM23.76 55.43C20.8036 53.8901 18.3287 51.5655 16.6069 48.7112C14.8852 45.8569 13.9832 42.5833 14 39.25V22.73C14 21.4039 14.5268 20.1321 15.4645 19.1945C16.4021 18.2568 17.6739 17.73 19 17.73H32.1C44.2 17.73 53.5 25.8 54.24 36.46C55.29 51.59 39.56 63.5 23.76 55.43ZM110.66 25.72L84.45 94.21C82.9783 98.0582 80.3748 101.37 76.9829 103.709C73.591 106.047 69.57 107.303 65.45 107.31H49.69C48.7336 107.311 47.7912 107.08 46.9441 106.635C46.0971 106.191 45.3706 105.548 44.8274 104.761C44.2843 103.974 43.9406 103.066 43.8261 102.117C43.7115 101.167 43.8296 100.204 44.17 99.31L70.38 30.81C71.8501 26.96 74.4529 23.6461 77.8449 21.3056C81.2369 18.9651 85.2589 17.7079 89.38 17.7H105.11C106.071 17.6928 107.02 17.9207 107.873 18.3638C108.727 18.8069 109.459 19.4518 110.006 20.2424C110.553 21.033 110.898 21.9454 111.012 22.9C111.126 23.8547 111.006 24.8228 110.66 25.72Z" fill="#7E4AB8"/>
</svg>
