<svg width="1054" height="280" viewBox="0 0 1054 280" fill="none" xmlns="http://www.w3.org/2000/svg">
<path d="M989.661 216.719C977.342 216.719 966.385 214.141 956.787 208.984C947.334 203.827 939.814 196.809 934.227 187.928C928.784 178.904 926.062 168.662 926.062 157.203C926.062 145.6 928.784 135.359 934.227 126.478C939.814 117.454 947.334 110.435 956.787 105.421C966.385 100.265 977.342 97.6864 989.661 97.6864C1001.84 97.6864 1012.72 100.265 1022.32 105.421C1031.92 110.435 1039.44 117.382 1044.88 126.263C1050.32 135.144 1053.04 145.457 1053.04 157.203C1053.04 168.662 1050.32 178.904 1044.88 187.928C1039.44 196.809 1031.92 203.827 1022.32 208.984C1012.72 214.141 1001.84 216.719 989.661 216.719ZM989.661 189.217C995.247 189.217 1000.26 187.928 1004.7 185.349C1009.14 182.771 1012.65 179.118 1015.23 174.391C1017.81 169.521 1019.1 163.792 1019.1 157.203C1019.1 150.47 1017.81 144.741 1015.23 140.014C1012.65 135.287 1009.14 131.634 1004.7 129.056C1000.26 126.478 995.247 125.188 989.661 125.188C984.075 125.188 979.061 126.478 974.621 129.056C970.18 131.634 966.599 135.287 963.878 140.014C961.3 144.741 960.01 150.47 960.01 157.203C960.01 163.792 961.3 169.521 963.878 174.391C966.599 179.118 970.18 182.771 974.621 185.349C979.061 187.928 984.075 189.217 989.661 189.217Z" fill="white"/>
<path d="M855.521 97.6864C864.688 97.6864 872.853 99.5485 880.015 103.273C887.32 106.854 893.05 112.44 897.204 120.032C901.358 127.48 903.435 137.077 903.435 148.823V215H869.917V153.98C869.917 144.669 867.84 137.794 863.686 133.353C859.675 128.913 853.945 126.693 846.497 126.693C841.197 126.693 836.399 127.838 832.101 130.13C827.947 132.279 824.653 135.645 822.218 140.229C819.926 144.812 818.78 150.685 818.78 157.847V215H785.262V99.4053H817.276V131.419L811.26 121.751C815.414 114.016 821.358 108.071 829.093 103.917C836.828 99.7634 845.638 97.6864 855.521 97.6864Z" fill="white"/>
<path d="M686.529 216.719C676.931 216.719 668.337 214.857 660.745 211.133C653.297 207.408 647.496 201.75 643.342 194.159C639.188 186.424 637.111 176.612 637.111 164.723V99.4053H670.629V159.781C670.629 169.378 672.634 176.468 676.645 181.052C680.799 185.493 686.6 187.713 694.049 187.713C699.205 187.713 703.789 186.639 707.8 184.49C711.81 182.198 714.962 178.76 717.254 174.177C719.545 169.45 720.691 163.577 720.691 156.558V99.4053H754.21V215H722.41V183.201L728.211 192.44C724.344 200.461 718.614 206.549 711.023 210.703C703.574 214.714 695.409 216.719 686.529 216.719Z" fill="white"/>
<path d="M538.623 216.719C527.736 216.719 517.924 214.284 509.187 209.414C500.449 204.4 493.502 197.453 488.345 188.572C483.332 179.691 480.825 169.235 480.825 157.203C480.825 145.027 483.332 134.499 488.345 125.618C493.502 116.737 500.449 109.862 509.187 104.992C517.924 100.121 527.736 97.6863 538.623 97.6863C548.363 97.6863 556.886 99.8349 564.191 104.132C571.496 108.429 577.154 114.947 581.165 123.684C585.176 132.422 587.181 143.595 587.181 157.203C587.181 170.667 585.247 181.84 581.38 190.721C577.512 199.458 571.926 205.976 564.621 210.273C557.459 214.57 548.793 216.719 538.623 216.719ZM544.424 189.217C549.867 189.217 554.809 187.928 559.249 185.349C563.69 182.771 567.199 179.118 569.777 174.391C572.499 169.521 573.86 163.792 573.86 157.203C573.86 150.47 572.499 144.741 569.777 140.014C567.199 135.287 563.69 131.634 559.249 129.056C554.809 126.478 549.867 125.188 544.424 125.188C538.837 125.188 533.824 126.478 529.384 129.056C524.943 131.634 521.362 135.287 518.641 140.014C516.062 144.741 514.773 150.47 514.773 157.203C514.773 163.792 516.062 169.521 518.641 174.391C521.362 179.118 524.943 182.771 529.384 185.349C533.824 187.928 538.837 189.217 544.424 189.217ZM574.719 215V191.365L575.364 156.988L573.215 122.825V55.5737H606.733V215H574.719Z" fill="white"/>
<path d="M379.848 125.188H452.255V152.261H379.848V125.188ZM382.426 187.068H464.288V215H347.833V64.5979H461.494V92.5297H382.426V187.068Z" fill="white"/>
<path d="M104.886 77.8965C71.3541 118.057 93.709 171.042 125.508 171.042H276.512C278.843 160.852 280.013 150.432 280 139.979C279.995 105.128 266.991 71.5327 243.532 45.7602C220.072 19.9877 187.844 3.89167 153.147 0.618961C118.45 -2.65375 83.7806 7.13223 55.9159 28.0636C28.0511 48.995 8.99512 79.5668 2.47349 113.802C-4.04815 148.037 2.43353 183.473 20.6513 213.183C38.869 242.893 67.5129 264.74 100.983 274.453C134.453 284.166 170.342 281.046 201.633 265.703C232.925 250.361 257.369 223.899 270.187 191.491H194.371C185.931 200.425 175.424 207.147 163.774 211.064C152.125 214.981 139.691 215.973 127.567 213.953C115.444 211.933 104.004 206.962 94.2538 199.479C84.5039 191.996 76.744 182.23 71.6574 171.042C49.4541 120.115 76.2063 54.8051 139.892 55.585C166.536 55.9099 178.558 72.9143 178.558 94.2511C178.319 104.339 174.144 113.933 166.925 120.984C159.706 128.034 150.015 131.981 139.924 131.981C129.834 131.981 120.143 128.034 112.924 120.984C105.705 113.933 101.53 104.339 101.291 94.2511C101.269 88.594 102.52 83.0045 104.951 77.8965H104.886Z" fill="#F7F7F7"/>
</svg>
