<svg width="280" height="280" viewBox="0 0 280 280" fill="none" xmlns="http://www.w3.org/2000/svg">
<path d="M104.886 77.8965C71.3541 118.057 93.709 171.042 125.508 171.042H276.512C278.843 160.852 280.013 150.432 280 139.979C279.995 105.128 266.991 71.5327 243.532 45.7602C220.072 19.9877 187.844 3.89167 153.147 0.618961C118.45 -2.65375 83.7806 7.13223 55.9159 28.0636C28.0511 48.995 8.99512 79.5668 2.47349 113.802C-4.04815 148.037 2.43353 183.473 20.6513 213.183C38.869 242.893 67.5129 264.74 100.983 274.453C134.453 284.166 170.342 281.046 201.633 265.703C232.925 250.361 257.369 223.899 270.187 191.491H194.371C185.931 200.425 175.424 207.147 163.774 211.064C152.125 214.981 139.691 215.973 127.567 213.953C115.444 211.933 104.004 206.962 94.2538 199.479C84.5039 191.996 76.744 182.23 71.6574 171.042C49.4541 120.115 76.2063 54.8051 139.892 55.585C166.536 55.9099 178.558 72.9143 178.558 94.2511C178.319 104.339 174.144 113.933 166.925 120.984C159.706 128.034 150.015 131.981 139.924 131.981C129.834 131.981 120.143 128.034 112.924 120.984C105.705 113.933 101.53 104.339 101.291 94.2511C101.269 88.594 102.52 83.0045 104.951 77.8965H104.886Z" fill="#F7F7F7"/>
</svg>
