<svg xmlns="http://www.w3.org/2000/svg" viewBox="0 0 125.02 125.02"><defs><style>.cls-1{fill:#fff;}.cls-2{fill:#7e4ab8;}</style></defs><g id="Layer_2" data-name="Layer 2"><g id="Layer_1-2" data-name="Layer 1"><rect class="cls-1" x="4.47" y="4.47" width="116.07" height="116.07"/><path class="cls-2" d="M115,0H10A10,10,0,0,0,0,10V115a10,10,0,0,0,10,10H115a10,10,0,0,0,10-10V10A10,10,0,0,0,115,0ZM23.76,55.43A18.14,18.14,0,0,1,14,39.25V22.73a5,5,0,0,1,5-5H32.1c12.1,0,21.4,8.07,22.14,18.73C55.29,51.59,39.56,63.5,23.76,55.43Zm86.9-29.71L84.45,94.21a20.38,20.38,0,0,1-19,13.1H49.69a5.9,5.9,0,0,1-5.52-8L70.38,30.81a20.38,20.38,0,0,1,19-13.11h15.73A5.9,5.9,0,0,1,110.66,25.72Z"/></g></g></svg>