<svg width="1200" height="900" viewBox="0 0 1200 900" fill="none" xmlns="http://www.w3.org/2000/svg">
<path d="M1181.18 0H18.8235C8.42758 0 0 10.278 0 22.9565V877.043C0 889.722 8.42758 900 18.8235 900H1181.18C1191.57 900 1200 889.722 1200 877.043V22.9565C1200 10.278 1191.57 0 1181.18 0Z" fill="#E3E6EB"/>
<path fill-rule="evenodd" clip-rule="evenodd" d="M977.5 378C1035.76 378 1083 330.766 1083 272.5C1083 214.234 1035.76 167 977.5 167C919.236 167 872 214.234 872 272.5C872 330.766 919.236 378 977.5 378Z" fill="#CDCFD5"/>
<path fill-rule="evenodd" clip-rule="evenodd" d="M446.402 426L38 899H782L446.402 426Z" fill="#CDCFD5"/>
<path fill-rule="evenodd" clip-rule="evenodd" d="M741.737 327L313 900H1157L741.737 327Z" fill="#C0C3CB"/>
</svg>
